<?xml version="1.0" standalone="no"?>
<!DOCTYPE svg PUBLIC "-//W3C//DTD SVG 20010904//EN"
 "http://www.w3.org/TR/2001/REC-SVG-20010904/DTD/svg10.dtd">
<svg version="1.0" xmlns="http://www.w3.org/2000/svg"
 width="225.000000pt" height="225.000000pt" viewBox="0 0 225.000000 225.000000"
 preserveAspectRatio="xMidYMid meet">

<g transform="translate(0.000000,225.000000) scale(0.100000,-0.100000)"
fill="#000000" stroke="none">
<path d="M982 1726 c-74 -24 -147 -90 -184 -166 -30 -63 -31 -186 -1 -251 72
-160 261 -228 421 -152 52 25 120 96 145 151 32 71 30 180 -4 252 -30 65 -86
122 -148 152 -55 27 -168 34 -229 14z"/>
<path d="M1407 1113 c-4 -3 -7 -17 -7 -29 0 -17 -11 -29 -38 -43 -37 -19 -38
-19 -64 0 -30 22 -46 18 -72 -18 -18 -24 -18 -27 -2 -53 14 -25 14 -32 1 -63
-10 -25 -22 -36 -45 -40 -28 -6 -30 -9 -30 -52 0 -43 2 -46 30 -52 23 -4 35
-15 46 -41 13 -31 13 -38 -1 -59 -18 -27 -13 -52 15 -78 19 -17 21 -17 53 0
30 16 36 16 69 2 28 -12 37 -22 40 -44 3 -26 7 -28 51 -31 43 -3 47 -1 47 20
0 31 9 42 47 57 28 11 36 11 62 -5 l31 -18 31 31 31 31 -21 29 c-20 27 -21 32
-8 63 10 23 24 36 48 44 31 10 34 14 34 51 0 37 -3 41 -34 51 -23 7 -38 21
-47 43 -13 30 -12 36 7 63 l21 29 -28 30 c-33 34 -38 35 -70 10 -23 -18 -27
-18 -57 -3 -38 18 -47 29 -47 60 0 19 -5 22 -43 22 -24 0 -47 -3 -50 -7z m95
-162 c37 -14 77 -61 89 -104 9 -32 7 -48 -6 -83 -42 -110 -188 -126 -254 -29
-19 29 -23 44 -19 88 3 31 12 64 24 79 36 49 110 71 166 49z"/>
<path d="M815 1058 c-71 -38 -199 -163 -238 -232 -41 -74 -79 -185 -80 -239
-3 -79 -13 -77 373 -77 l337 0 -37 39 c-107 112 -135 300 -66 434 15 27 26 50
26 50 0 1 -29 3 -64 4 -54 2 -85 10 -176 46 -8 4 -42 -8 -75 -25z"/>
</g>
</svg>
